<?xml version="1.0" encoding="iso-8859-1"?>
<!-- Generator: Adobe Illustrator 19.0.0, SVG Export Plug-In . SVG Version: 6.00 Build 0)  -->
<svg version="1.1" id="Capa_1" xmlns="http://www.w3.org/2000/svg" xmlns:xlink="http://www.w3.org/1999/xlink" x="0px" y="0px"
	 viewBox="0 0 504.025 504.025" style="enable-background:new 0 0 504.025 504.025;" xml:space="preserve">
<g transform="translate(-1 -1)">
	<g>
		<g>
			<path d="M489.09,345.4l-4.792-7.94c13.794-41.798,15.784-86.592,5.75-129.448c1.889-2.273,3.41-4.827,4.509-7.571
				c5.618-15.579-2.387-32.772-17.926-38.5l-2.647-1.025c-27.511-59.927-78.291-106.029-140.59-127.639
				c-62.299-21.61-130.72-16.855-189.431,13.164l-11.799-17.091C108.526-0.684,65.868-7.703,33.853,13.175
				c-33.364,23.192-42.784,68.416-21.455,103l23.262,40.745c-16.026,32.818-24.307,68.877-24.204,105.399
				c-0.046,80.717,40.098,156.159,107.069,201.216c66.971,45.057,151.979,53.814,226.729,23.356
				c11.029,7.565,23.432,12.898,36.51,15.698c7.042,1.492,14.22,2.246,21.418,2.25c21.037-0.027,41.549-6.573,58.713-18.738
				C506.376,453.54,518.235,392.192,489.09,345.4z M478.885,194.416v0.004c-1.166,2.991-3.484,5.389-6.434,6.656
				c-3.471,1.511-7.404,1.569-10.918,0.159l-18.214-7.057c-0.12-0.047-0.233-0.097-0.356-0.138l-122.828-47.588
				c-6.919-2.374-10.635-9.878-8.328-16.82c1.167-2.991,3.485-5.39,6.434-6.66c1.759-0.778,3.662-1.179,5.586-1.176
				c1.826,0.007,3.635,0.351,5.336,1.016l141.402,54.783C477.483,179.972,481.196,187.477,478.885,194.416z M472.61,318.092
				L431,249.146c-5.552-9.193-4.1-20.99,3.516-28.561l8.031-8.698l12.92,5.006c3.637,1.417,7.506,2.148,11.41,2.156
				c2.758-0.047,5.497-0.468,8.141-1.254C481.798,250.98,480.974,285.27,472.61,318.092z M253.857,36.703
				c81.521,0.056,156.68,44.054,196.637,115.111l-115.268-44.656c-7.673-3.027-16.239-2.857-23.787,0.471
				c-7.033,3.067-12.545,8.824-15.303,15.984c-5.613,15.58,2.395,32.77,17.934,38.496l12.659,4.905l-5.905,17.247
				c-7.94,23.039-5.231,48.415,7.393,69.258l73.906,122.459c3.609,5.426,2.838,12.655-1.836,17.197
				c-2.776,2.474-6.524,3.558-10.193,2.947c-3.828-0.638-7.167-2.965-9.09-6.336L272.34,232.39l2.873-1.748
				c2.575-1.553,4.123-4.365,4.057-7.371c-0.066-3.006-1.735-5.748-4.375-7.187c-2.641-1.439-5.849-1.356-8.411,0.218l-3.697,2.251
				l-20.371-29.507l5.625-3.425c2.575-1.553,4.123-4.365,4.057-7.371s-1.735-5.748-4.375-7.187s-5.849-1.356-8.411,0.218
				l-6.45,3.926L212.49,145.7l8.383-5.103c3.933-2.421,5.171-7.566,2.768-11.511c-2.402-3.945-7.541-5.208-11.497-2.825
				l-9.205,5.603l-20.373-29.509l11.136-6.779c2.577-1.552,4.126-4.364,4.061-7.372s-1.735-5.75-4.377-7.188
				c-2.642-1.439-5.852-1.353-8.413,0.224l-11.958,7.279l-19.437-28.152C184.725,44.833,219.05,36.733,253.857,36.703z
				 M253.857,488.019C129.288,487.854,28.359,386.887,28.242,262.318c-0.083-30.048,5.924-59.8,17.658-87.462l3.862,6.765
				c1.124,1.969,2.997,3.4,5.192,3.967c2.196,0.567,4.527,0.221,6.464-0.959l17.93-10.914c13.781-8.401,18.244-26.322,10.012-40.205
				l-8.688-15.443c5.871-7.041,12.194-13.692,18.929-19.911l215.419,356.94c4.342,7.115,9.537,13.672,15.469,19.527
				C305.921,483.518,279.986,488.051,253.857,488.019z M71.809,102.312L59.861,81.076c-1.929-3.209-2.344-7.105-1.135-10.648
				c1.164-3.533,3.843-6.363,7.307-7.717c6.143-2.012,12.848,0.627,15.971,6.287l8.646,14.326
				C84.004,89.28,77.713,95.62,71.809,102.312z M452.254,472.355c-19.473,13.716-43.775,18.714-67.08,13.796
				c-23.306-4.919-43.515-19.31-55.785-39.726L96.373,60.326c-7.399-12.639-22.764-18.197-36.537-13.217
				c-8.002,3.195-14.209,9.726-16.993,17.88c-2.784,8.154-1.866,17.117,2.512,24.538L63.11,121.08l0.008,0.014l11.742,20.871
				c3.61,5.984,1.716,13.76-4.242,17.414l-10.557,6.426l-33.189-58.127c-16.839-26.85-9.744-62.18,16.156-80.446
				c24.561-16.006,57.256-10.792,75.619,12.061l40.016,57.96l-0.59,0.359c-2.577,1.552-4.126,4.364-4.061,7.372
				c0.065,3.007,1.735,5.75,4.377,7.188s5.852,1.353,8.413-0.224l1.412-0.86l20.373,29.509l-3.343,2.035
				c-2.577,1.552-4.126,4.364-4.061,7.372c0.065,3.007,1.735,5.75,4.377,7.188c2.642,1.438,5.852,1.353,8.413-0.224l4.166-2.536
				l20.373,29.508l-6.099,3.713c-3.934,2.422-5.171,7.567-2.769,11.513c2.402,3.946,7.541,5.209,11.499,2.827l6.925-4.215
				l20.371,29.506l-8.853,5.389c-3.934,2.422-5.171,7.567-2.769,11.513c2.402,3.946,7.541,5.209,11.499,2.827l9.678-5.891
				l108.921,157.764c4.471,7.405,11.983,12.459,20.527,13.811s17.249-1.136,23.788-6.799c10.847-9.904,13.064-26.145,5.27-38.594
				l-73.91-122.459c-10.051-16.594-12.207-36.797-5.885-55.139l5.692-16.623l83.329,32.285l-3.341,3.618
				c-12.887,13.032-15.262,33.158-5.762,48.832l58.09,96.254C499.325,393.303,489.533,444.875,452.254,472.355z"/>
			<path d="M452.885,386.047c-2.211,0.271-4.223,1.41-5.593,3.166s-1.985,3.985-1.711,6.195
				c2.371,16.231-4.258,32.468-17.311,42.402c-0.836,0.582-1.68,1.139-2.549,1.672c-15.756,9.57-35.805,8.308-50.238-3.16
				c-2.34-1.885-5.51-2.375-8.31-1.285c-2.8,1.09-4.805,3.594-5.255,6.565c-0.45,2.971,0.722,5.956,3.073,7.827
				c7.388,5.921,16.073,10.009,25.344,11.93c15.121,3.223,30.903,0.529,44.098-7.529c1.156-0.701,2.295-1.455,3.451-2.258
				c18.266-13.405,27.634-35.803,24.352-58.221C461.644,388.767,457.476,385.513,452.885,386.047z"/>
		</g>
	</g>
</g>
<g>
</g>
<g>
</g>
<g>
</g>
<g>
</g>
<g>
</g>
<g>
</g>
<g>
</g>
<g>
</g>
<g>
</g>
<g>
</g>
<g>
</g>
<g>
</g>
<g>
</g>
<g>
</g>
<g>
</g>
</svg>
